<?xml version="1.0" encoding="utf-8"?>
<svg xmlns="http://www.w3.org/2000/svg" xmlns:xlink="http://www.w3.org/1999/xlink" width="500" height="350" viewBox="0 0 2000 1400">
<defs>
  <clipPath id="clip760">
    <rect x="0" y="0" width="2000" height="1400"/>
  </clipPath>
</defs>
<path clip-path="url(#clip760)" d="M0 1400 L2000 1400 L2000 0 L0 0  Z" fill="#ffffff" fill-rule="evenodd" fill-opacity="1"/>
<defs>
  <clipPath id="clip761">
    <rect x="254" y="47" width="1699" height="1175"/>
  </clipPath>
</defs>
<path clip-path="url(#clip760)" d="M254.932 1221.08 L1952.76 1221.08 L1952.76 47.2441 L254.932 47.2441  Z" fill="#ffffff" fill-rule="evenodd" fill-opacity="1"/>
<polyline clip-path="url(#clip761)" style="stroke:#000000; stroke-linecap:round; stroke-linejoin:round; stroke-width:2; stroke-opacity:0.1; fill:none" points="302.984,1221.08 302.984,47.2441 "/>
<polyline clip-path="url(#clip761)" style="stroke:#000000; stroke-linecap:round; stroke-linejoin:round; stroke-width:2; stroke-opacity:0.1; fill:none" points="703.414,1221.08 703.414,47.2441 "/>
<polyline clip-path="url(#clip761)" style="stroke:#000000; stroke-linecap:round; stroke-linejoin:round; stroke-width:2; stroke-opacity:0.1; fill:none" points="1103.84,1221.08 1103.84,47.2441 "/>
<polyline clip-path="url(#clip761)" style="stroke:#000000; stroke-linecap:round; stroke-linejoin:round; stroke-width:2; stroke-opacity:0.1; fill:none" points="1504.27,1221.08 1504.27,47.2441 "/>
<polyline clip-path="url(#clip761)" style="stroke:#000000; stroke-linecap:round; stroke-linejoin:round; stroke-width:2; stroke-opacity:0.1; fill:none" points="1904.7,1221.08 1904.7,47.2441 "/>
<polyline clip-path="url(#clip761)" style="stroke:#000000; stroke-linecap:round; stroke-linejoin:round; stroke-width:2; stroke-opacity:0.1; fill:none" points="254.932,1044.51 1952.76,1044.51 "/>
<polyline clip-path="url(#clip761)" style="stroke:#000000; stroke-linecap:round; stroke-linejoin:round; stroke-width:2; stroke-opacity:0.1; fill:none" points="254.932,828.27 1952.76,828.27 "/>
<polyline clip-path="url(#clip761)" style="stroke:#000000; stroke-linecap:round; stroke-linejoin:round; stroke-width:2; stroke-opacity:0.1; fill:none" points="254.932,612.034 1952.76,612.034 "/>
<polyline clip-path="url(#clip761)" style="stroke:#000000; stroke-linecap:round; stroke-linejoin:round; stroke-width:2; stroke-opacity:0.1; fill:none" points="254.932,395.797 1952.76,395.797 "/>
<polyline clip-path="url(#clip761)" style="stroke:#000000; stroke-linecap:round; stroke-linejoin:round; stroke-width:2; stroke-opacity:0.1; fill:none" points="254.932,179.56 1952.76,179.56 "/>
<polyline clip-path="url(#clip760)" style="stroke:#000000; stroke-linecap:round; stroke-linejoin:round; stroke-width:4; stroke-opacity:1; fill:none" points="254.932,1221.08 1952.76,1221.08 "/>
<polyline clip-path="url(#clip760)" style="stroke:#000000; stroke-linecap:round; stroke-linejoin:round; stroke-width:4; stroke-opacity:1; fill:none" points="302.984,1221.08 302.984,1202.18 "/>
<polyline clip-path="url(#clip760)" style="stroke:#000000; stroke-linecap:round; stroke-linejoin:round; stroke-width:4; stroke-opacity:1; fill:none" points="703.414,1221.08 703.414,1202.18 "/>
<polyline clip-path="url(#clip760)" style="stroke:#000000; stroke-linecap:round; stroke-linejoin:round; stroke-width:4; stroke-opacity:1; fill:none" points="1103.84,1221.08 1103.84,1202.18 "/>
<polyline clip-path="url(#clip760)" style="stroke:#000000; stroke-linecap:round; stroke-linejoin:round; stroke-width:4; stroke-opacity:1; fill:none" points="1504.27,1221.08 1504.27,1202.18 "/>
<polyline clip-path="url(#clip760)" style="stroke:#000000; stroke-linecap:round; stroke-linejoin:round; stroke-width:4; stroke-opacity:1; fill:none" points="1904.7,1221.08 1904.7,1202.18 "/>
<path clip-path="url(#clip760)" d="M302.984 1248.79 Q299.372 1248.79 297.544 1252.36 Q295.738 1255.9 295.738 1263.03 Q295.738 1270.14 297.544 1273.7 Q299.372 1277.24 302.984 1277.24 Q306.618 1277.24 308.423 1273.7 Q310.252 1270.14 310.252 1263.03 Q310.252 1255.9 308.423 1252.36 Q306.618 1248.79 302.984 1248.79 M302.984 1245.09 Q308.794 1245.09 311.849 1249.7 Q314.928 1254.28 314.928 1263.03 Q314.928 1271.76 311.849 1276.36 Q308.794 1280.95 302.984 1280.95 Q297.173 1280.95 294.095 1276.36 Q291.039 1271.76 291.039 1263.03 Q291.039 1254.28 294.095 1249.7 Q297.173 1245.09 302.984 1245.09 Z" fill="#000000" fill-rule="nonzero" fill-opacity="1" /><path clip-path="url(#clip760)" d="M693.692 1245.72 L712.048 1245.72 L712.048 1249.65 L697.974 1249.65 L697.974 1258.12 Q698.992 1257.78 700.011 1257.61 Q701.029 1257.43 702.048 1257.43 Q707.835 1257.43 711.215 1260.6 Q714.594 1263.77 714.594 1269.19 Q714.594 1274.77 711.122 1277.87 Q707.65 1280.95 701.33 1280.95 Q699.154 1280.95 696.886 1280.58 Q694.641 1280.21 692.233 1279.47 L692.233 1274.77 Q694.317 1275.9 696.539 1276.46 Q698.761 1277.01 701.238 1277.01 Q705.242 1277.01 707.58 1274.91 Q709.918 1272.8 709.918 1269.19 Q709.918 1265.58 707.58 1263.47 Q705.242 1261.36 701.238 1261.36 Q699.363 1261.36 697.488 1261.78 Q695.636 1262.2 693.692 1263.08 L693.692 1245.72 Z" fill="#000000" fill-rule="nonzero" fill-opacity="1" /><path clip-path="url(#clip760)" d="M1078.53 1276.34 L1086.17 1276.34 L1086.17 1249.98 L1077.86 1251.64 L1077.86 1247.38 L1086.12 1245.72 L1090.8 1245.72 L1090.8 1276.34 L1098.44 1276.34 L1098.44 1280.28 L1078.53 1280.28 L1078.53 1276.34 Z" fill="#000000" fill-rule="nonzero" fill-opacity="1" /><path clip-path="url(#clip760)" d="M1117.88 1248.79 Q1114.27 1248.79 1112.44 1252.36 Q1110.64 1255.9 1110.64 1263.03 Q1110.64 1270.14 1112.44 1273.7 Q1114.27 1277.24 1117.88 1277.24 Q1121.52 1277.24 1123.32 1273.7 Q1125.15 1270.14 1125.15 1263.03 Q1125.15 1255.9 1123.32 1252.36 Q1121.52 1248.79 1117.88 1248.79 M1117.88 1245.09 Q1123.69 1245.09 1126.75 1249.7 Q1129.83 1254.28 1129.83 1263.03 Q1129.83 1271.76 1126.75 1276.36 Q1123.69 1280.95 1117.88 1280.95 Q1112.07 1280.95 1108.99 1276.36 Q1105.94 1271.76 1105.94 1263.03 Q1105.94 1254.28 1108.99 1249.7 Q1112.07 1245.09 1117.88 1245.09 Z" fill="#000000" fill-rule="nonzero" fill-opacity="1" /><path clip-path="url(#clip760)" d="M1479.46 1276.34 L1487.1 1276.34 L1487.1 1249.98 L1478.79 1251.64 L1478.79 1247.38 L1487.05 1245.72 L1491.73 1245.72 L1491.73 1276.34 L1499.37 1276.34 L1499.37 1280.28 L1479.46 1280.28 L1479.46 1276.34 Z" fill="#000000" fill-rule="nonzero" fill-opacity="1" /><path clip-path="url(#clip760)" d="M1508.86 1245.72 L1527.21 1245.72 L1527.21 1249.65 L1513.14 1249.65 L1513.14 1258.12 Q1514.16 1257.78 1515.18 1257.61 Q1516.2 1257.43 1517.21 1257.43 Q1523 1257.43 1526.38 1260.6 Q1529.76 1263.77 1529.76 1269.19 Q1529.76 1274.77 1526.29 1277.87 Q1522.82 1280.95 1516.5 1280.95 Q1514.32 1280.95 1512.05 1280.58 Q1509.81 1280.21 1507.4 1279.47 L1507.4 1274.77 Q1509.48 1275.9 1511.7 1276.46 Q1513.93 1277.01 1516.4 1277.01 Q1520.41 1277.01 1522.75 1274.91 Q1525.08 1272.8 1525.08 1269.19 Q1525.08 1265.58 1522.75 1263.47 Q1520.41 1261.36 1516.4 1261.36 Q1514.53 1261.36 1512.65 1261.78 Q1510.8 1262.2 1508.86 1263.08 L1508.86 1245.72 Z" fill="#000000" fill-rule="nonzero" fill-opacity="1" /><path clip-path="url(#clip760)" d="M1883.48 1276.34 L1899.8 1276.34 L1899.8 1280.28 L1877.85 1280.28 L1877.85 1276.34 Q1880.51 1273.59 1885.1 1268.96 Q1889.7 1264.3 1890.88 1262.96 Q1893.13 1260.44 1894.01 1258.7 Q1894.91 1256.94 1894.91 1255.25 Q1894.91 1252.5 1892.97 1250.76 Q1891.05 1249.03 1887.95 1249.03 Q1885.75 1249.03 1883.29 1249.79 Q1880.86 1250.55 1878.08 1252.1 L1878.08 1247.38 Q1880.91 1246.25 1883.36 1245.67 Q1885.82 1245.09 1887.85 1245.09 Q1893.22 1245.09 1896.42 1247.78 Q1899.61 1250.46 1899.61 1254.95 Q1899.61 1257.08 1898.8 1259 Q1898.01 1260.9 1895.91 1263.49 Q1895.33 1264.16 1892.23 1267.38 Q1889.13 1270.58 1883.48 1276.34 Z" fill="#000000" fill-rule="nonzero" fill-opacity="1" /><path clip-path="url(#clip760)" d="M1919.61 1248.79 Q1916 1248.79 1914.17 1252.36 Q1912.37 1255.9 1912.37 1263.03 Q1912.37 1270.14 1914.17 1273.7 Q1916 1277.24 1919.61 1277.24 Q1923.25 1277.24 1925.05 1273.7 Q1926.88 1270.14 1926.88 1263.03 Q1926.88 1255.9 1925.05 1252.36 Q1923.25 1248.79 1919.61 1248.79 M1919.61 1245.09 Q1925.42 1245.09 1928.48 1249.7 Q1931.56 1254.28 1931.56 1263.03 Q1931.56 1271.76 1928.48 1276.36 Q1925.42 1280.95 1919.61 1280.95 Q1913.8 1280.95 1910.72 1276.36 Q1907.67 1271.76 1907.67 1263.03 Q1907.67 1254.28 1910.72 1249.7 Q1913.8 1245.09 1919.61 1245.09 Z" fill="#000000" fill-rule="nonzero" fill-opacity="1" /><path clip-path="url(#clip760)" d="M957.273 1314.17 L957.273 1324.29 L969.337 1324.29 L969.337 1328.84 L957.273 1328.84 L957.273 1348.2 Q957.273 1352.56 958.451 1353.8 Q959.661 1355.04 963.321 1355.04 L969.337 1355.04 L969.337 1359.94 L963.321 1359.94 Q956.541 1359.94 953.963 1357.43 Q951.385 1354.88 951.385 1348.2 L951.385 1328.84 L947.088 1328.84 L947.088 1324.29 L951.385 1324.29 L951.385 1314.17 L957.273 1314.17 Z" fill="#000000" fill-rule="nonzero" fill-opacity="1" /><path clip-path="url(#clip760)" d="M977.039 1324.29 L982.895 1324.29 L982.895 1359.94 L977.039 1359.94 L977.039 1324.29 M977.039 1310.41 L982.895 1310.41 L982.895 1317.83 L977.039 1317.83 L977.039 1310.41 Z" fill="#000000" fill-rule="nonzero" fill-opacity="1" /><path clip-path="url(#clip760)" d="M1022.9 1331.14 Q1025.1 1327.19 1028.16 1325.31 Q1031.21 1323.43 1035.35 1323.43 Q1040.92 1323.43 1043.94 1327.35 Q1046.97 1331.23 1046.97 1338.42 L1046.97 1359.94 L1041.08 1359.94 L1041.08 1338.61 Q1041.08 1333.49 1039.26 1331.01 Q1037.45 1328.53 1033.73 1328.53 Q1029.17 1328.53 1026.53 1331.55 Q1023.89 1334.57 1023.89 1339.79 L1023.89 1359.94 L1018 1359.94 L1018 1338.61 Q1018 1333.46 1016.19 1331.01 Q1014.37 1328.53 1010.59 1328.53 Q1006.1 1328.53 1003.46 1331.58 Q1000.81 1334.6 1000.81 1339.79 L1000.81 1359.94 L994.927 1359.94 L994.927 1324.29 L1000.81 1324.29 L1000.81 1329.83 Q1002.82 1326.55 1005.62 1324.99 Q1008.42 1323.43 1012.27 1323.43 Q1016.16 1323.43 1018.86 1325.41 Q1021.6 1327.38 1022.9 1331.14 Z" fill="#000000" fill-rule="nonzero" fill-opacity="1" /><path clip-path="url(#clip760)" d="M1089.14 1340.65 L1089.14 1343.52 L1062.21 1343.52 Q1062.59 1349.56 1065.84 1352.75 Q1069.12 1355.9 1074.94 1355.9 Q1078.32 1355.9 1081.47 1355.07 Q1084.65 1354.24 1087.77 1352.59 L1087.77 1358.13 Q1084.62 1359.46 1081.31 1360.16 Q1078 1360.86 1074.59 1360.86 Q1066.06 1360.86 1061.07 1355.9 Q1056.1 1350.93 1056.1 1342.47 Q1056.1 1333.71 1060.81 1328.59 Q1065.55 1323.43 1073.57 1323.43 Q1080.77 1323.43 1084.94 1328.08 Q1089.14 1332.69 1089.14 1340.65 M1083.28 1338.93 Q1083.22 1334.13 1080.58 1331.26 Q1077.97 1328.4 1073.64 1328.4 Q1068.74 1328.4 1065.78 1331.17 Q1062.85 1333.94 1062.4 1338.96 L1083.28 1338.93 Z" fill="#000000" fill-rule="nonzero" fill-opacity="1" /><path clip-path="url(#clip760)" d="M1133.54 1310.48 Q1129.27 1317.8 1127.21 1324.96 Q1125.14 1332.12 1125.14 1339.47 Q1125.14 1346.83 1127.21 1354.05 Q1129.31 1361.24 1133.54 1368.53 L1128.45 1368.53 Q1123.67 1361.05 1121.29 1353.83 Q1118.93 1346.6 1118.93 1339.47 Q1118.93 1332.38 1121.29 1325.18 Q1123.64 1317.99 1128.45 1310.48 L1133.54 1310.48 Z" fill="#000000" fill-rule="nonzero" fill-opacity="1" /><path clip-path="url(#clip760)" d="M1146.84 1354.53 L1157.35 1354.53 L1157.35 1318.28 L1145.92 1320.57 L1145.92 1314.71 L1157.28 1312.42 L1163.71 1312.42 L1163.71 1354.53 L1174.22 1354.53 L1174.22 1359.94 L1146.84 1359.94 L1146.84 1354.53 Z" fill="#000000" fill-rule="nonzero" fill-opacity="1" /><path clip-path="url(#clip760)" d="M1196.78 1312.42 L1202.19 1312.42 L1185.64 1365.99 L1180.23 1365.99 L1196.78 1312.42 Z" fill="#000000" fill-rule="nonzero" fill-opacity="1" /><path clip-path="url(#clip760)" d="M1213.68 1329.89 L1221.48 1351.92 L1232.62 1324.29 L1238.83 1324.29 L1224.41 1359.94 L1224.41 1373.5 L1218.55 1373.5 L1218.55 1359.94 L1209.2 1333.33 Q1207.8 1329.32 1204.77 1329.32 L1203.21 1329.32 L1203.21 1324.29 L1205.44 1324.29 Q1211.71 1324.29 1213.68 1329.89 Z" fill="#000000" fill-rule="nonzero" fill-opacity="1" /><path clip-path="url(#clip760)" d="M1245.99 1310.48 L1251.08 1310.48 Q1255.86 1317.99 1258.21 1325.18 Q1260.6 1332.38 1260.6 1339.47 Q1260.6 1346.6 1258.21 1353.83 Q1255.86 1361.05 1251.08 1368.53 L1245.99 1368.53 Q1250.22 1361.24 1252.29 1354.05 Q1254.39 1346.83 1254.39 1339.47 Q1254.39 1332.12 1252.29 1324.96 Q1250.22 1317.8 1245.99 1310.48 Z" fill="#000000" fill-rule="nonzero" fill-opacity="1" /><polyline clip-path="url(#clip760)" style="stroke:#000000; stroke-linecap:round; stroke-linejoin:round; stroke-width:4; stroke-opacity:1; fill:none" points="254.932,1221.08 254.932,47.2441 "/>
<polyline clip-path="url(#clip760)" style="stroke:#000000; stroke-linecap:round; stroke-linejoin:round; stroke-width:4; stroke-opacity:1; fill:none" points="254.932,1044.51 273.83,1044.51 "/>
<polyline clip-path="url(#clip760)" style="stroke:#000000; stroke-linecap:round; stroke-linejoin:round; stroke-width:4; stroke-opacity:1; fill:none" points="254.932,828.27 273.83,828.27 "/>
<polyline clip-path="url(#clip760)" style="stroke:#000000; stroke-linecap:round; stroke-linejoin:round; stroke-width:4; stroke-opacity:1; fill:none" points="254.932,612.034 273.83,612.034 "/>
<polyline clip-path="url(#clip760)" style="stroke:#000000; stroke-linecap:round; stroke-linejoin:round; stroke-width:4; stroke-opacity:1; fill:none" points="254.932,395.797 273.83,395.797 "/>
<polyline clip-path="url(#clip760)" style="stroke:#000000; stroke-linecap:round; stroke-linejoin:round; stroke-width:4; stroke-opacity:1; fill:none" points="254.932,179.56 273.83,179.56 "/>
<path clip-path="url(#clip760)" d="M118.636 1044.96 L148.312 1044.96 L148.312 1048.89 L118.636 1048.89 L118.636 1044.96 Z" fill="#000000" fill-rule="nonzero" fill-opacity="1" /><path clip-path="url(#clip760)" d="M168.404 1030.31 Q164.793 1030.31 162.965 1033.87 Q161.159 1037.41 161.159 1044.54 Q161.159 1051.65 162.965 1055.21 Q164.793 1058.75 168.404 1058.75 Q172.039 1058.75 173.844 1055.21 Q175.673 1051.65 175.673 1044.54 Q175.673 1037.41 173.844 1033.87 Q172.039 1030.31 168.404 1030.31 M168.404 1026.6 Q174.215 1026.6 177.27 1031.21 Q180.349 1035.79 180.349 1044.54 Q180.349 1053.27 177.27 1057.88 Q174.215 1062.46 168.404 1062.46 Q162.594 1062.46 159.516 1057.88 Q156.46 1053.27 156.46 1044.54 Q156.46 1035.79 159.516 1031.21 Q162.594 1026.6 168.404 1026.6 Z" fill="#000000" fill-rule="nonzero" fill-opacity="1" /><path clip-path="url(#clip760)" d="M188.566 1055.91 L193.451 1055.91 L193.451 1061.79 L188.566 1061.79 L188.566 1055.91 Z" fill="#000000" fill-rule="nonzero" fill-opacity="1" /><path clip-path="url(#clip760)" d="M217.802 1043.15 Q221.159 1043.87 223.034 1046.14 Q224.932 1048.41 224.932 1051.74 Q224.932 1056.86 221.413 1059.66 Q217.895 1062.46 211.413 1062.46 Q209.238 1062.46 206.923 1062.02 Q204.631 1061.6 202.177 1060.75 L202.177 1056.23 Q204.122 1057.37 206.437 1057.94 Q208.751 1058.52 211.275 1058.52 Q215.673 1058.52 217.964 1056.79 Q220.279 1055.05 220.279 1051.74 Q220.279 1048.69 218.126 1046.97 Q215.997 1045.24 212.177 1045.24 L208.15 1045.24 L208.15 1041.39 L212.363 1041.39 Q215.812 1041.39 217.64 1040.03 Q219.469 1038.64 219.469 1036.05 Q219.469 1033.38 217.571 1031.97 Q215.696 1030.54 212.177 1030.54 Q210.256 1030.54 208.057 1030.95 Q205.858 1031.37 203.219 1032.25 L203.219 1028.08 Q205.881 1027.34 208.196 1026.97 Q210.534 1026.6 212.594 1026.6 Q217.918 1026.6 221.02 1029.03 Q224.122 1031.44 224.122 1035.56 Q224.122 1038.43 222.478 1040.42 Q220.835 1042.39 217.802 1043.15 Z" fill="#000000" fill-rule="nonzero" fill-opacity="1" /><path clip-path="url(#clip760)" d="M167.756 814.069 Q164.145 814.069 162.316 817.634 Q160.511 821.176 160.511 828.305 Q160.511 835.412 162.316 838.976 Q164.145 842.518 167.756 842.518 Q171.391 842.518 173.196 838.976 Q175.025 835.412 175.025 828.305 Q175.025 821.176 173.196 817.634 Q171.391 814.069 167.756 814.069 M167.756 810.365 Q173.566 810.365 176.622 814.972 Q179.701 819.555 179.701 828.305 Q179.701 837.032 176.622 841.638 Q173.566 846.222 167.756 846.222 Q161.946 846.222 158.867 841.638 Q155.812 837.032 155.812 828.305 Q155.812 819.555 158.867 814.972 Q161.946 810.365 167.756 810.365 Z" fill="#000000" fill-rule="nonzero" fill-opacity="1" /><path clip-path="url(#clip760)" d="M187.918 839.671 L192.802 839.671 L192.802 845.55 L187.918 845.55 L187.918 839.671 Z" fill="#000000" fill-rule="nonzero" fill-opacity="1" /><path clip-path="url(#clip760)" d="M212.988 814.069 Q209.376 814.069 207.548 817.634 Q205.742 821.176 205.742 828.305 Q205.742 835.412 207.548 838.976 Q209.376 842.518 212.988 842.518 Q216.622 842.518 218.427 838.976 Q220.256 835.412 220.256 828.305 Q220.256 821.176 218.427 817.634 Q216.622 814.069 212.988 814.069 M212.988 810.365 Q218.798 810.365 221.853 814.972 Q224.932 819.555 224.932 828.305 Q224.932 837.032 221.853 841.638 Q218.798 846.222 212.988 846.222 Q207.177 846.222 204.099 841.638 Q201.043 837.032 201.043 828.305 Q201.043 819.555 204.099 814.972 Q207.177 810.365 212.988 810.365 Z" fill="#000000" fill-rule="nonzero" fill-opacity="1" /><path clip-path="url(#clip760)" d="M168.404 597.832 Q164.793 597.832 162.965 601.397 Q161.159 604.939 161.159 612.068 Q161.159 619.175 162.965 622.74 Q164.793 626.281 168.404 626.281 Q172.039 626.281 173.844 622.74 Q175.673 619.175 175.673 612.068 Q175.673 604.939 173.844 601.397 Q172.039 597.832 168.404 597.832 M168.404 594.129 Q174.215 594.129 177.27 598.735 Q180.349 603.318 180.349 612.068 Q180.349 620.795 177.27 625.402 Q174.215 629.985 168.404 629.985 Q162.594 629.985 159.516 625.402 Q156.46 620.795 156.46 612.068 Q156.46 603.318 159.516 598.735 Q162.594 594.129 168.404 594.129 Z" fill="#000000" fill-rule="nonzero" fill-opacity="1" /><path clip-path="url(#clip760)" d="M188.566 623.434 L193.451 623.434 L193.451 629.314 L188.566 629.314 L188.566 623.434 Z" fill="#000000" fill-rule="nonzero" fill-opacity="1" /><path clip-path="url(#clip760)" d="M217.802 610.68 Q221.159 611.397 223.034 613.666 Q224.932 615.934 224.932 619.267 Q224.932 624.383 221.413 627.184 Q217.895 629.985 211.413 629.985 Q209.238 629.985 206.923 629.545 Q204.631 629.129 202.177 628.272 L202.177 623.758 Q204.122 624.892 206.437 625.471 Q208.751 626.05 211.275 626.05 Q215.673 626.05 217.964 624.314 Q220.279 622.578 220.279 619.267 Q220.279 616.212 218.126 614.499 Q215.997 612.763 212.177 612.763 L208.15 612.763 L208.15 608.92 L212.363 608.92 Q215.812 608.92 217.64 607.555 Q219.469 606.166 219.469 603.573 Q219.469 600.911 217.571 599.499 Q215.696 598.064 212.177 598.064 Q210.256 598.064 208.057 598.481 Q205.858 598.897 203.219 599.777 L203.219 595.61 Q205.881 594.869 208.196 594.499 Q210.534 594.129 212.594 594.129 Q217.918 594.129 221.02 596.559 Q224.122 598.967 224.122 603.087 Q224.122 605.957 222.478 607.948 Q220.835 609.916 217.802 610.68 Z" fill="#000000" fill-rule="nonzero" fill-opacity="1" /><path clip-path="url(#clip760)" d="M167.594 381.596 Q163.983 381.596 162.154 385.16 Q160.349 388.702 160.349 395.832 Q160.349 402.938 162.154 406.503 Q163.983 410.045 167.594 410.045 Q171.228 410.045 173.034 406.503 Q174.863 402.938 174.863 395.832 Q174.863 388.702 173.034 385.16 Q171.228 381.596 167.594 381.596 M167.594 377.892 Q173.404 377.892 176.46 382.498 Q179.539 387.082 179.539 395.832 Q179.539 404.559 176.46 409.165 Q173.404 413.748 167.594 413.748 Q161.784 413.748 158.705 409.165 Q155.65 404.559 155.65 395.832 Q155.65 387.082 158.705 382.498 Q161.784 377.892 167.594 377.892 Z" fill="#000000" fill-rule="nonzero" fill-opacity="1" /><path clip-path="url(#clip760)" d="M187.756 407.197 L192.64 407.197 L192.64 413.077 L187.756 413.077 L187.756 407.197 Z" fill="#000000" fill-rule="nonzero" fill-opacity="1" /><path clip-path="url(#clip760)" d="M213.404 393.934 Q210.256 393.934 208.404 396.086 Q206.576 398.239 206.576 401.989 Q206.576 405.716 208.404 407.892 Q210.256 410.045 213.404 410.045 Q216.552 410.045 218.381 407.892 Q220.233 405.716 220.233 401.989 Q220.233 398.239 218.381 396.086 Q216.552 393.934 213.404 393.934 M222.687 379.281 L222.687 383.54 Q220.927 382.707 219.122 382.267 Q217.339 381.827 215.58 381.827 Q210.95 381.827 208.497 384.952 Q206.066 388.077 205.719 394.397 Q207.085 392.383 209.145 391.318 Q211.205 390.23 213.682 390.23 Q218.89 390.23 221.899 393.401 Q224.932 396.549 224.932 401.989 Q224.932 407.313 221.784 410.531 Q218.636 413.748 213.404 413.748 Q207.409 413.748 204.238 409.165 Q201.066 404.559 201.066 395.832 Q201.066 387.637 204.955 382.776 Q208.844 377.892 215.395 377.892 Q217.154 377.892 218.937 378.239 Q220.742 378.586 222.687 379.281 Z" fill="#000000" fill-rule="nonzero" fill-opacity="1" /><path clip-path="url(#clip760)" d="M167.941 165.359 Q164.33 165.359 162.502 168.924 Q160.696 172.465 160.696 179.595 Q160.696 186.701 162.502 190.266 Q164.33 193.808 167.941 193.808 Q171.576 193.808 173.381 190.266 Q175.21 186.701 175.21 179.595 Q175.21 172.465 173.381 168.924 Q171.576 165.359 167.941 165.359 M167.941 161.655 Q173.752 161.655 176.807 166.262 Q179.886 170.845 179.886 179.595 Q179.886 188.322 176.807 192.928 Q173.752 197.512 167.941 197.512 Q162.131 197.512 159.053 192.928 Q155.997 188.322 155.997 179.595 Q155.997 170.845 159.053 166.262 Q162.131 161.655 167.941 161.655 Z" fill="#000000" fill-rule="nonzero" fill-opacity="1" /><path clip-path="url(#clip760)" d="M188.103 190.961 L192.988 190.961 L192.988 196.84 L188.103 196.84 L188.103 190.961 Z" fill="#000000" fill-rule="nonzero" fill-opacity="1" /><path clip-path="url(#clip760)" d="M203.312 196.123 L203.312 191.863 Q205.071 192.697 206.876 193.137 Q208.682 193.576 210.418 193.576 Q215.048 193.576 217.478 190.475 Q219.932 187.35 220.279 181.007 Q218.937 182.998 216.876 184.063 Q214.816 185.127 212.316 185.127 Q207.131 185.127 204.099 182.002 Q201.089 178.854 201.089 173.414 Q201.089 168.09 204.238 164.873 Q207.386 161.655 212.617 161.655 Q218.612 161.655 221.761 166.262 Q224.932 170.845 224.932 179.595 Q224.932 187.766 221.043 192.651 Q217.177 197.512 210.626 197.512 Q208.867 197.512 207.062 197.164 Q205.256 196.817 203.312 196.123 M212.617 181.47 Q215.765 181.47 217.594 179.317 Q219.446 177.164 219.446 173.414 Q219.446 169.688 217.594 167.535 Q215.765 165.359 212.617 165.359 Q209.469 165.359 207.617 167.535 Q205.788 169.688 205.788 173.414 Q205.788 177.164 207.617 179.317 Q209.469 181.47 212.617 181.47 Z" fill="#000000" fill-rule="nonzero" fill-opacity="1" /><path clip-path="url(#clip760)" d="M42.8381 824.558 Q42.8381 829.269 46.5302 832.006 Q50.1905 834.743 56.588 834.743 Q62.9855 834.743 66.6777 832.038 Q70.3379 829.301 70.3379 824.558 Q70.3379 819.879 66.6458 817.142 Q62.9537 814.405 56.588 814.405 Q50.2541 814.405 46.562 817.142 Q42.8381 819.879 42.8381 824.558 M37.8728 824.558 Q37.8728 816.919 42.8381 812.559 Q47.8033 808.198 56.588 808.198 Q65.3409 808.198 70.3379 812.559 Q75.3032 816.919 75.3032 824.558 Q75.3032 832.229 70.3379 836.589 Q65.3409 840.918 56.588 840.918 Q47.8033 840.918 42.8381 836.589 Q37.8728 832.229 37.8728 824.558 Z" fill="#000000" fill-rule="nonzero" fill-opacity="1" /><path clip-path="url(#clip760)" d="M60.3119 799.095 L38.7322 799.095 L38.7322 793.239 L60.0891 793.239 Q65.1499 793.239 67.6962 791.266 Q70.2106 789.292 70.2106 785.346 Q70.2106 780.603 67.1869 777.866 Q64.1632 775.097 58.9433 775.097 L38.7322 775.097 L38.7322 769.24 L74.3802 769.24 L74.3802 775.097 L68.9056 775.097 Q72.1522 777.229 73.7436 780.062 Q75.3032 782.863 75.3032 786.587 Q75.3032 792.73 71.4838 795.913 Q67.6643 799.095 60.3119 799.095 M37.8728 784.359 L37.8728 784.359 Z" fill="#000000" fill-rule="nonzero" fill-opacity="1" /><path clip-path="url(#clip760)" d="M28.6107 751.384 L38.7322 751.384 L38.7322 739.321 L43.2837 739.321 L43.2837 751.384 L62.6354 751.384 Q66.9959 751.384 68.2373 750.207 Q69.4786 748.997 69.4786 745.337 L69.4786 739.321 L74.3802 739.321 L74.3802 745.337 Q74.3802 752.117 71.8657 754.695 Q69.3194 757.273 62.6354 757.273 L43.2837 757.273 L43.2837 761.57 L38.7322 761.57 L38.7322 757.273 L28.6107 757.273 L28.6107 751.384 Z" fill="#000000" fill-rule="nonzero" fill-opacity="1" /><path clip-path="url(#clip760)" d="M69.033 725.953 L87.9391 725.953 L87.9391 731.842 L38.7322 731.842 L38.7322 725.953 L44.1431 725.953 Q40.9602 724.107 39.4324 721.306 Q37.8728 718.474 37.8728 714.559 Q37.8728 708.066 43.0291 704.024 Q48.1853 699.95 56.588 699.95 Q64.9907 699.95 70.147 704.024 Q75.3032 708.066 75.3032 714.559 Q75.3032 718.474 73.7754 721.306 Q72.2158 724.107 69.033 725.953 M56.588 706.029 Q50.1268 706.029 46.4665 708.702 Q42.7744 711.344 42.7744 715.991 Q42.7744 720.638 46.4665 723.312 Q50.1268 725.953 56.588 725.953 Q63.0492 725.953 66.7413 723.312 Q70.4016 720.638 70.4016 715.991 Q70.4016 711.344 66.7413 708.702 Q63.0492 706.029 56.588 706.029 Z" fill="#000000" fill-rule="nonzero" fill-opacity="1" /><path clip-path="url(#clip760)" d="M60.3119 690.847 L38.7322 690.847 L38.7322 684.99 L60.0891 684.99 Q65.1499 684.99 67.6962 683.017 Q70.2106 681.043 70.2106 677.097 Q70.2106 672.354 67.1869 669.617 Q64.1632 666.848 58.9433 666.848 L38.7322 666.848 L38.7322 660.991 L74.3802 660.991 L74.3802 666.848 L68.9056 666.848 Q72.1522 668.98 73.7436 671.813 Q75.3032 674.614 75.3032 678.338 Q75.3032 684.481 71.4838 687.664 Q67.6643 690.847 60.3119 690.847 M37.8728 676.11 L37.8728 676.11 Z" fill="#000000" fill-rule="nonzero" fill-opacity="1" /><path clip-path="url(#clip760)" d="M28.6107 643.136 L38.7322 643.136 L38.7322 631.073 L43.2837 631.073 L43.2837 643.136 L62.6354 643.136 Q66.9959 643.136 68.2373 641.958 Q69.4786 640.748 69.4786 637.088 L69.4786 631.073 L74.3802 631.073 L74.3802 637.088 Q74.3802 643.868 71.8657 646.446 Q69.3194 649.024 62.6354 649.024 L43.2837 649.024 L43.2837 653.321 L38.7322 653.321 L38.7322 649.024 L28.6107 649.024 L28.6107 643.136 Z" fill="#000000" fill-rule="nonzero" fill-opacity="1" /><path clip-path="url(#clip760)" d="M45.5753 574.895 Q41.6286 572.699 39.7507 569.644 Q37.8728 566.588 37.8728 562.45 Q37.8728 556.88 41.7877 553.857 Q45.6708 550.833 52.8641 550.833 L74.3802 550.833 L74.3802 556.721 L53.055 556.721 Q47.9306 556.721 45.448 558.535 Q42.9654 560.35 42.9654 564.074 Q42.9654 568.625 45.9891 571.267 Q49.0128 573.909 54.2327 573.909 L74.3802 573.909 L74.3802 579.797 L53.055 579.797 Q47.8988 579.797 45.448 581.611 Q42.9654 583.425 42.9654 587.213 Q42.9654 591.701 46.0209 594.342 Q49.0446 596.984 54.2327 596.984 L74.3802 596.984 L74.3802 602.873 L38.7322 602.873 L38.7322 596.984 L44.2704 596.984 Q40.992 594.979 39.4324 592.178 Q37.8728 589.377 37.8728 585.526 Q37.8728 581.643 39.8462 578.937 Q41.8196 576.2 45.5753 574.895 Z" fill="#000000" fill-rule="nonzero" fill-opacity="1" /><path clip-path="url(#clip760)" d="M42.8381 525.338 Q42.8381 530.049 46.5302 532.786 Q50.1905 535.523 56.588 535.523 Q62.9855 535.523 66.6777 532.818 Q70.3379 530.081 70.3379 525.338 Q70.3379 520.659 66.6458 517.922 Q62.9537 515.185 56.588 515.185 Q50.2541 515.185 46.562 517.922 Q42.8381 520.659 42.8381 525.338 M37.8728 525.338 Q37.8728 517.699 42.8381 513.339 Q47.8033 508.978 56.588 508.978 Q65.3409 508.978 70.3379 513.339 Q75.3032 517.699 75.3032 525.338 Q75.3032 533.009 70.3379 537.369 Q65.3409 541.698 56.588 541.698 Q47.8033 541.698 42.8381 537.369 Q37.8728 533.009 37.8728 525.338 Z" fill="#000000" fill-rule="nonzero" fill-opacity="1" /><path clip-path="url(#clip760)" d="M44.1431 475.813 L24.855 475.813 L24.855 469.957 L74.3802 469.957 L74.3802 475.813 L69.033 475.813 Q72.2158 477.659 73.7754 480.492 Q75.3032 483.293 75.3032 487.239 Q75.3032 493.701 70.147 497.775 Q64.9907 501.817 56.588 501.817 Q48.1853 501.817 43.0291 497.775 Q37.8728 493.701 37.8728 487.239 Q37.8728 483.293 39.4324 480.492 Q40.9602 477.659 44.1431 475.813 M56.588 495.77 Q63.0492 495.77 66.7413 493.128 Q70.4016 490.454 70.4016 485.807 Q70.4016 481.16 66.7413 478.487 Q63.0492 475.813 56.588 475.813 Q50.1268 475.813 46.4665 478.487 Q42.7744 481.16 42.7744 485.807 Q42.7744 490.454 46.4665 493.128 Q50.1268 495.77 56.588 495.77 Z" fill="#000000" fill-rule="nonzero" fill-opacity="1" /><path clip-path="url(#clip760)" d="M55.0921 427.402 L57.9566 427.402 L57.9566 454.329 Q64.0041 453.947 67.1869 450.7 Q70.3379 447.422 70.3379 441.597 Q70.3379 438.224 69.5104 435.072 Q68.6829 431.89 67.0278 428.77 L72.5659 428.77 Q73.9027 431.921 74.603 435.232 Q75.3032 438.542 75.3032 441.947 Q75.3032 450.478 70.3379 455.475 Q65.3727 460.44 56.9063 460.44 Q48.1534 460.44 43.0291 455.729 Q37.8728 450.987 37.8728 442.966 Q37.8728 435.773 42.5198 431.603 Q47.1349 427.402 55.0921 427.402 M53.3733 433.258 Q48.5672 433.322 45.7026 435.964 Q42.8381 438.574 42.8381 442.902 Q42.8381 447.804 45.6072 450.764 Q48.3762 453.692 53.4052 454.138 L53.3733 433.258 Z" fill="#000000" fill-rule="nonzero" fill-opacity="1" /><polyline clip-path="url(#clip761)" style="stroke:#000000; stroke-linecap:round; stroke-linejoin:round; stroke-width:4; stroke-opacity:1; fill:none" points="302.984,828.27 306.187,828.27 309.39,828.27 312.594,828.27 315.797,828.27 319.001,828.27 322.204,828.27 325.408,828.27 328.611,828.27 331.814,828.27 335.018,828.27 338.221,828.27 341.425,828.27 344.628,828.27 347.832,828.27 351.035,828.27 354.239,828.27 357.442,828.27 360.645,828.27 363.849,828.27 367.052,828.27 370.256,828.27 373.459,828.27 376.663,828.27 379.866,828.27 383.07,828.27 386.273,828.27 389.476,828.27 392.68,828.27 395.883,828.27 399.087,828.27 402.29,828.27 405.494,828.27 408.697,828.27 411.901,828.27 415.104,828.27 418.307,828.27 421.511,828.27 424.714,828.27 427.918,828.27 431.121,828.27 434.325,828.27 437.528,828.27 440.731,828.27 443.935,828.27 447.138,828.27 450.342,828.27 453.545,828.27 456.749,828.27 459.952,828.27 463.156,828.27 466.359,828.27 469.562,828.269 472.766,828.269 475.969,828.268 479.173,828.266 482.376,828.263 485.58,828.258 488.783,828.25 491.987,828.239 495.19,828.221 498.393,828.194 501.597,828.154 504.8,828.094 508.004,828.007 511.207,827.881 514.411,827.702 517.614,827.448 520.818,827.095 524.021,826.609 527.224,825.947 530.428,825.059 533.631,823.882 536.835,822.339 540.038,820.343 543.242,817.793 546.445,814.575 549.649,810.565 552.852,805.635 556.055,799.647 559.259,792.47 562.462,783.966 565.666,774.025 568.869,762.528 572.073,749.409 575.276,734.588 578.479,718.014 581.683,699.699 584.886,679.612 588.09,657.809 591.293,634.301 594.497,609.18 597.7,582.523 600.904,554.444 604.107,525.117 607.31,494.735 610.514,463.593 613.717,431.998 616.921,400.42 620.124,369.352 623.328,339.367 626.531,311.091 629.735,285.147 632.938,262.134 636.141,242.591 639.345,226.93 642.548,215.431 645.752,208.213 648.955,205.227 652.159,206.259 655.362,210.963 658.566,218.88 661.769,229.482 664.972,242.207 668.176,256.493 671.379,271.811 674.583,287.685 677.786,303.708 680.99,319.552 684.193,334.964 687.396,349.766 690.6,363.847 693.803,377.149 697.007,389.658 700.21,401.396 703.414,412.406 706.617,422.745 709.821,432.479 713.024,441.675 716.227,450.397 719.431,458.707 722.634,466.656 725.838,474.293 729.041,481.657 732.245,488.781 735.448,495.693 738.652,502.415 741.855,508.964 745.058,515.355 748.262,521.598 751.465,527.703 754.669,533.677 757.872,539.525 761.076,545.252 764.279,550.863 767.483,556.361 770.686,561.747 773.889,567.027 777.093,572.201 780.296,577.272 783.5,582.242 786.703,587.114 789.907,591.89 793.11,596.57 796.314,601.158 799.517,605.655 802.72,610.064 805.924,614.384 809.127,618.62 812.331,622.771 815.534,626.84 818.738,630.829 821.941,634.739 825.144,638.571 828.348,642.327 831.551,646.009 834.755,649.618 837.958,653.155 841.162,656.623 844.365,660.022 847.569,663.353 850.772,666.619 853.975,669.82 857.179,672.957 860.382,676.033 863.586,679.047 866.789,682.002 869.993,684.898 873.196,687.737 876.4,690.52 879.603,693.248 882.806,695.921 886.01,698.542 889.213,701.111 892.417,703.629 895.62,706.097 898.824,708.516 902.027,710.887 905.231,713.212 908.434,715.49 911.637,717.723 914.841,719.912 918.044,722.058 921.248,724.161 924.451,726.222 927.655,728.243 930.858,730.224 934.061,732.165 937.265,734.068 940.468,735.934 943.672,737.762 946.875,739.554 950.079,741.311 953.282,743.033 956.486,744.721 959.689,746.375 962.892,747.997 966.096,749.586 969.299,751.144 972.503,752.671 975.706,754.168 978.91,755.636 982.113,757.074 985.317,758.484 988.52,759.865 991.723,761.22 994.927,762.548 998.13,763.849 1001.33,765.125 1004.54,766.375 1007.74,767.601 1010.94,768.802 1014.15,769.98 1017.35,771.134 1020.55,772.265 1023.76,773.374 1026.96,774.461 1030.16,775.527 1033.37,776.571 1036.57,777.595 1039.78,778.598 1042.98,779.582 1046.18,780.546 1049.39,781.491 1052.59,782.417 1055.79,783.325 1059,784.215 1062.2,785.087 1065.4,785.942 1068.61,786.781 1071.81,787.602 1075.01,788.407 1078.22,789.197 1081.42,789.97 1084.62,790.729 1087.83,791.472 1091.03,792.201 1094.23,792.915 1097.44,793.615 1100.64,794.301 1103.84,794.974 1107.05,795.633 1110.25,796.28 1113.45,796.913 1116.66,797.534 1119.86,798.143 1123.06,798.739 1126.27,799.324 1129.47,799.897 1132.67,800.459 1135.88,801.01 1139.08,801.549 1142.29,802.078 1145.49,802.597 1148.69,803.105 1151.9,803.604 1155.1,804.092 1158.3,804.571 1161.51,805.04 1164.71,805.5 1167.91,805.951 1171.12,806.393 1174.32,806.826 1177.52,807.251 1180.73,807.667 1183.93,808.075 1187.13,808.475 1190.34,808.867 1193.54,809.251 1196.74,809.628 1199.95,809.997 1203.15,810.359 1206.35,810.713 1209.56,811.061 1212.76,811.402 1215.96,811.736 1219.17,812.063 1222.37,812.384 1225.57,812.699 1228.78,813.007 1231.98,813.309 1235.18,813.605 1238.39,813.896 1241.59,814.18 1244.8,814.459 1248,814.733 1251.2,815.001 1254.41,815.264 1257.61,815.521 1260.81,815.774 1264.02,816.021 1267.22,816.264 1270.42,816.502 1273.63,816.735 1276.83,816.963 1280.03,817.187 1283.24,817.406 1286.44,817.621 1289.64,817.832 1292.85,818.039 1296.05,818.242 1299.25,818.44 1302.46,818.635 1305.66,818.826 1308.86,819.013 1312.07,819.196 1315.27,819.376 1318.47,819.552 1321.68,819.724 1324.88,819.894 1328.08,820.059 1331.29,820.222 1334.49,820.381 1337.7,820.538 1340.9,820.691 1344.1,820.841 1347.31,820.988 1350.51,821.132 1353.71,821.273 1356.92,821.412 1360.12,821.548 1363.32,821.681 1366.53,821.811 1369.73,821.939 1372.93,822.065 1376.14,822.188 1379.34,822.308 1382.54,822.426 1385.75,822.542 1388.95,822.655 1392.15,822.766 1395.36,822.875 1398.56,822.982 1401.76,823.087 1404.97,823.19 1408.17,823.29 1411.37,823.389 1414.58,823.485 1417.78,823.58 1420.98,823.673 1424.19,823.764 1427.39,823.853 1430.59,823.941 1433.8,824.027 1437,824.111 1440.21,824.193 1443.41,824.274 1446.61,824.353 1449.82,824.43 1453.02,824.506 1456.22,824.581 1459.43,824.654 1462.63,824.726 1465.83,824.796 1469.04,824.865 1472.24,824.932 1475.44,824.998 1478.65,825.063 1481.85,825.126 1485.05,825.189 1488.26,825.25 1491.46,825.31 1494.66,825.368 1497.87,825.426 1501.07,825.482 1504.27,825.537 1507.48,825.591 1510.68,825.644 1513.88,825.696 1517.09,825.747 1520.29,825.797 1523.49,825.846 1526.7,825.894 1529.9,825.941 1533.11,825.987 1536.31,826.033 1539.51,826.077 1542.72,826.12 1545.92,826.163 1549.12,826.205 1552.33,826.246 1555.53,826.286 1558.73,826.325 1561.94,826.363 1565.14,826.401 1568.34,826.438 1571.55,826.475 1574.75,826.51 1577.95,826.545 1581.16,826.579 1584.36,826.613 1587.56,826.645 1590.77,826.678 1593.97,826.709 1597.17,826.74 1600.38,826.77 1603.58,826.8 1606.78,826.829 1609.99,826.858 1613.19,826.886 1616.39,826.913 1619.6,826.94 1622.8,826.966 1626,826.992 1629.21,827.017 1632.41,827.042 1635.62,827.067 1638.82,827.09 1642.02,827.114 1645.23,827.137 1648.43,827.159 1651.63,827.181 1654.84,827.203 1658.04,827.224 1661.24,827.245 1664.45,827.265 1667.65,827.285 1670.85,827.304 1674.06,827.323 1677.26,827.342 1680.46,827.361 1683.67,827.379 1686.87,827.396 1690.07,827.414 1693.28,827.431 1696.48,827.447 1699.68,827.463 1702.89,827.479 1706.09,827.495 1709.29,827.51 1712.5,827.525 1715.7,827.54 1718.9,827.555 1722.11,827.569 1725.31,827.583 1728.51,827.596 1731.72,827.61 1734.92,827.623 1738.13,827.636 1741.33,827.648 1744.53,827.66 1747.74,827.673 1750.94,827.684 1754.14,827.696 1757.35,827.707 1760.55,827.719 1763.75,827.729 1766.96,827.74 1770.16,827.751 1773.36,827.761 1776.57,827.771 1779.77,827.781 1782.97,827.791 1786.18,827.8 1789.38,827.809 1792.58,827.819 1795.79,827.828 1798.99,827.836 1802.19,827.845 1805.4,827.853 1808.6,827.862 1811.8,827.87 1815.01,827.878 1818.21,827.885 1821.41,827.893 1824.62,827.9 1827.82,827.908 1831.03,827.915 1834.23,827.922 1837.43,827.929 1840.64,827.936 1843.84,827.942 1847.04,827.949 1850.25,827.955 1853.45,827.961 1856.65,827.968 1859.86,827.973 1863.06,827.979 1866.26,827.985 1869.47,827.991 1872.67,827.996 1875.87,828.002 1879.08,828.007 1882.28,828.012 1885.48,828.017 1888.69,828.022 1891.89,828.027 1895.09,828.032 1898.3,828.037 1901.5,828.041 1904.7,828.046 "/>
<polyline clip-path="url(#clip761)" style="stroke:#ff0000; stroke-linecap:round; stroke-linejoin:round; stroke-width:4; stroke-opacity:1; fill:none" stroke-dasharray="16, 10" points="302.984,828.27 306.187,828.27 309.39,828.27 312.594,828.27 315.797,828.27 319.001,828.27 322.204,828.27 325.408,828.27 328.611,828.27 331.814,828.27 335.018,828.27 338.221,828.27 341.425,828.27 344.628,828.27 347.832,828.27 351.035,828.27 354.239,828.27 357.442,828.27 360.645,828.27 363.849,828.27 367.052,828.27 370.256,828.27 373.459,828.27 376.663,828.27 379.866,828.27 383.07,828.27 386.273,828.27 389.476,828.27 392.68,828.27 395.883,828.27 399.087,828.27 402.29,828.27 405.494,828.27 408.697,828.27 411.901,828.27 415.104,828.27 418.307,828.27 421.511,828.27 424.714,828.27 427.918,828.27 431.121,828.271 434.325,828.27 437.528,828.27 440.731,828.27 443.935,828.27 447.138,828.27 450.342,828.27 453.545,828.27 456.749,828.27 459.952,828.27 463.156,828.269 466.359,828.269 469.562,828.267 472.766,828.265 475.969,828.262 479.173,828.256 482.376,828.246 485.58,828.231 488.783,828.208 491.987,828.172 495.19,828.117 498.393,828.033 501.597,827.908 504.8,827.722 508.004,827.451 511.207,827.06 514.411,826.501 517.614,825.713 520.818,824.614 524.021,823.101 527.224,821.045 530.428,818.284 533.631,814.625 536.835,809.833 540.038,803.64 543.242,795.735 546.445,785.778 549.649,773.384 552.852,758.203 556.055,739.844 559.259,717.969 562.462,692.242 565.666,662.487 568.869,628.55 572.073,590.543 575.276,548.625 578.479,503.225 581.683,455.029 584.886,404.878 588.09,353.837 591.293,303.214 594.497,254.395 597.7,208.912 600.904,168.257 604.107,133.908 607.31,107.143 610.514,89.0596 613.717,80.4657 616.921,81.863 620.124,93.4096 623.328,114.943 626.531,145.99 629.735,185.817 632.938,233.466 636.141,287.818 639.345,347.628 642.548,411.587 645.752,478.354 648.955,546.603 652.159,615.047 655.362,682.479 658.566,747.797 661.769,810.029 664.972,868.354 668.176,922.119 671.379,970.847 674.583,1014.24 677.786,1052.18 680.99,1084.7 684.193,1111.98 687.396,1134.29 690.6,1152.02 693.803,1165.61 697.007,1175.51 700.21,1182.21 703.414,1186.18 706.617,1187.85 709.821,1187.64 713.024,1185.9 716.227,1182.96 719.431,1179.09 722.634,1174.51 725.838,1169.41 729.041,1163.95 732.245,1158.25 735.448,1152.39 738.652,1146.45 741.855,1140.49 745.058,1134.54 748.262,1128.64 751.465,1122.8 754.669,1117.05 757.872,1111.38 761.076,1105.81 764.279,1100.33 767.483,1094.96 770.686,1089.69 773.889,1084.52 777.093,1079.45 780.296,1074.48 783.5,1069.6 786.703,1064.82 789.907,1060.14 793.11,1055.55 796.314,1051.05 799.517,1046.64 802.72,1042.31 805.924,1038.07 809.127,1033.92 812.331,1029.85 815.534,1025.86 818.738,1021.94 821.941,1018.11 825.144,1014.35 828.348,1010.67 831.551,1007.05 834.755,1003.51 837.958,1000.04 841.162,996.642 844.365,993.308 847.569,990.04 850.772,986.837 853.975,983.697 857.179,980.62 860.382,977.603 863.586,974.646 866.789,971.748 869.993,968.907 873.196,966.122 876.4,963.392 879.603,960.716 882.806,958.094 886.01,955.523 889.213,953.003 892.417,950.533 895.62,948.113 898.824,945.74 902.027,943.414 905.231,941.134 908.434,938.899 911.637,936.708 914.841,934.561 918.044,932.456 921.248,930.393 924.451,928.371 927.655,926.389 930.858,924.446 934.061,922.542 937.265,920.675 940.468,918.845 943.672,917.052 946.875,915.294 950.079,913.57 953.282,911.881 956.486,910.226 959.689,908.603 962.892,907.012 966.096,905.453 969.299,903.925 972.503,902.427 975.706,900.958 978.91,899.519 982.113,898.108 985.317,896.725 988.52,895.37 991.723,894.041 994.927,892.739 998.13,891.462 1001.33,890.211 1004.54,888.985 1007.74,887.782 1010.94,886.604 1014.15,885.449 1017.35,884.317 1020.55,883.207 1023.76,882.119 1026.96,881.053 1030.16,880.008 1033.37,878.983 1036.57,877.979 1039.78,876.995 1042.98,876.03 1046.18,875.084 1049.39,874.157 1052.59,873.249 1055.79,872.358 1059,871.485 1062.2,870.629 1065.4,869.791 1068.61,868.968 1071.81,868.163 1075.01,867.373 1078.22,866.598 1081.42,865.839 1084.62,865.095 1087.83,864.366 1091.03,863.652 1094.23,862.951 1097.44,862.264 1100.64,861.591 1103.84,860.931 1107.05,860.285 1110.25,859.651 1113.45,859.029 1116.66,858.42 1119.86,857.823 1123.06,857.238 1126.27,856.665 1129.47,856.102 1132.67,855.551 1135.88,855.011 1139.08,854.482 1142.29,853.963 1145.49,853.454 1148.69,852.955 1151.9,852.466 1155.1,851.987 1158.3,851.518 1161.51,851.057 1164.71,850.606 1167.91,850.164 1171.12,849.73 1174.32,849.305 1177.52,848.889 1180.73,848.481 1183.93,848.08 1187.13,847.688 1190.34,847.304 1193.54,846.927 1196.74,846.557 1199.95,846.195 1203.15,845.84 1206.35,845.492 1209.56,845.151 1212.76,844.817 1215.96,844.49 1219.17,844.168 1222.37,843.854 1225.57,843.545 1228.78,843.243 1231.98,842.946 1235.18,842.655 1238.39,842.371 1241.59,842.091 1244.8,841.818 1248,841.549 1251.2,841.287 1254.41,841.029 1257.61,840.776 1260.81,840.529 1264.02,840.286 1267.22,840.048 1270.42,839.815 1273.63,839.586 1276.83,839.362 1280.03,839.142 1283.24,838.927 1286.44,838.716 1289.64,838.509 1292.85,838.307 1296.05,838.108 1299.25,837.913 1302.46,837.722 1305.66,837.535 1308.86,837.352 1312.07,837.172 1315.27,836.995 1318.47,836.823 1321.68,836.653 1324.88,836.487 1328.08,836.325 1331.29,836.165 1334.49,836.009 1337.7,835.856 1340.9,835.705 1344.1,835.558 1347.31,835.414 1350.51,835.272 1353.71,835.134 1356.92,834.998 1360.12,834.865 1363.32,834.734 1366.53,834.606 1369.73,834.481 1372.93,834.358 1376.14,834.237 1379.34,834.119 1382.54,834.003 1385.75,833.89 1388.95,833.778 1392.15,833.669 1395.36,833.562 1398.56,833.458 1401.76,833.355 1404.97,833.254 1408.17,833.156 1411.37,833.059 1414.58,832.964 1417.78,832.871 1420.98,832.78 1424.19,832.691 1427.39,832.603 1430.59,832.517 1433.8,832.433 1437,832.351 1440.21,832.27 1443.41,832.191 1446.61,832.113 1449.82,832.037 1453.02,831.963 1456.22,831.889 1459.43,831.818 1462.63,831.748 1465.83,831.679 1469.04,831.611 1472.24,831.545 1475.44,831.48 1478.65,831.417 1481.85,831.354 1485.05,831.293 1488.26,831.233 1491.46,831.175 1494.66,831.117 1497.87,831.061 1501.07,831.006 1504.27,830.951 1507.48,830.898 1510.68,830.846 1513.88,830.795 1517.09,830.745 1520.29,830.696 1523.49,830.648 1526.7,830.601 1529.9,830.555 1533.11,830.51 1536.31,830.466 1539.51,830.422 1542.72,830.379 1545.92,830.338 1549.12,830.297 1552.33,830.257 1555.53,830.217 1558.73,830.179 1561.94,830.141 1565.14,830.104 1568.34,830.068 1571.55,830.032 1574.75,829.997 1577.95,829.963 1581.16,829.929 1584.36,829.897 1587.56,829.864 1590.77,829.833 1593.97,829.802 1597.17,829.772 1600.38,829.742 1603.58,829.713 1606.78,829.684 1609.99,829.656 1613.19,829.629 1616.39,829.602 1619.6,829.575 1622.8,829.55 1626,829.524 1629.21,829.499 1632.41,829.475 1635.62,829.451 1638.82,829.428 1642.02,829.405 1645.23,829.383 1648.43,829.36 1651.63,829.339 1654.84,829.318 1658.04,829.297 1661.24,829.277 1664.45,829.257 1667.65,829.237 1670.85,829.218 1674.06,829.199 1677.26,829.181 1680.46,829.163 1683.67,829.145 1686.87,829.128 1690.07,829.111 1693.28,829.094 1696.48,829.078 1699.68,829.062 1702.89,829.046 1706.09,829.031 1709.29,829.016 1712.5,829.001 1715.7,828.987 1718.9,828.972 1722.11,828.959 1725.31,828.945 1728.51,828.932 1731.72,828.918 1734.92,828.906 1738.13,828.893 1741.33,828.881 1744.53,828.869 1747.74,828.857 1750.94,828.845 1754.14,828.834 1757.35,828.823 1760.55,828.812 1763.75,828.801 1766.96,828.791 1770.16,828.78 1773.36,828.77 1776.57,828.76 1779.77,828.751 1782.97,828.741 1786.18,828.732 1789.38,828.723 1792.58,828.714 1795.79,828.705 1798.99,828.696 1802.19,828.688 1805.4,828.68 1808.6,828.671 1811.8,828.664 1815.01,828.656 1818.21,828.648 1821.41,828.641 1824.62,828.633 1827.82,828.626 1831.03,828.619 1834.23,828.612 1837.43,828.605 1840.64,828.599 1843.84,828.592 1847.04,828.586 1850.25,828.58 1853.45,828.574 1856.65,828.568 1859.86,828.562 1863.06,828.556 1866.26,828.55 1869.47,828.545 1872.67,828.539 1875.87,828.534 1879.08,828.529 1882.28,828.524 1885.48,828.519 1888.69,828.514 1891.89,828.509 1895.09,828.504 1898.3,828.5 1901.5,828.495 1904.7,828.491 "/>
</svg>
